<svg xmlns="http://www.w3.org/2000/svg" viewBox="0 0 1200 500" width="100%" height="100%">
  <style>
    line {
      stroke: #ffffff;
      stroke-width: 1.2;
      vector-effect: non-scaling-stroke;
    }
  </style>
  
  <!-- Outer boundary lines -->
  <line x1="0" y1="0" x2="1200" y2="0" />
  <line x1="1200" y1="0" x2="1200" y2="500" />
  <line x1="1200" y1="500" x2="0" y2="500" />
  <line x1="0" y1="500" x2="0" y2="0" />

  <!-- Triangulation lines -->
  <line x1="0" y1="0" x2="50" y2="380" />
  <line x1="0" y1="0" x2="100" y2="150" />
  <line x1="200" y1="0" x2="100" y2="150" />
  <line x1="200" y1="0" x2="350" y2="100" />
  
  <line x1="100" y1="150" x2="50" y2="380" />
  <line x1="100" y1="150" x2="250" y2="300" />
  <line x1="100" y1="150" x2="350" y2="100" />
  
  <line x1="50" y1="380" x2="0" y2="500" />
  <line x1="50" y1="380" x2="180" y2="420" />
  <line x1="50" y1="380" x2="250" y2="300" />

  <line x1="180" y1="420" x2="0" y2="500" />
  <line x1="180" y1="420" x2="200" y2="500" />
  <line x1="180" y1="420" x2="250" y2="300" />
  <line x1="180" y1="420" x2="450" y2="450" />
  
  <line x1="250" y1="300" x2="350" y2="100" />
  <line x1="250" y1="300" x2="500" y2="200" />
  <line x1="250" y1="300" x2="450" y2="450" />

  <line x1="350" y1="100" x2="400" y2="0" />
  <line x1="350" y1="100" x2="600" y2="100" />
  <line x1="350" y1="100" x2="500" y2="200" />

  <line x1="400" y1="0" x2="600" y2="0" />
  <line x1="400" y1="0" x2="600" y2="100" />

  <line x1="500" y1="200" x2="600" y2="100" />
  <line x1="500" y1="200" x2="700" y2="350" />
  <line x1="500" y1="200" x2="450" y2="450" />
  <line x1="500" y1="200" x2="600" y2="500" />
  
  <line x1="450" y1="450" x2="400" y2="500" />
  <line x1="450" y1="450" x2="600" y2="500" />
  
  <line x1="600" y1="100" x2="600" y2="0" />
  <line x1="600" y1="100" x2="800" y2="0" />
  <line x1="600" y1="100" x2="780" y2="120" />
  <line x1="600" y1="100" x2="700" y2="350" />

  <line x1="700" y1="350" x2="780" y2="120" />
  <line x1="700" y1="350" x2="900" y2="280" />
  <line x1="700" y1="350" x2="600" y2="500" />
  <line x1="700" y1="350" x2="800" y2="500" />
  
  <line x1="780" y1="120" x2="800" y2="0" />
  <line x1="780" y1="120" x2="950" y2="150" />
  <line x1="780" y1="120" x2="900" y2="280" />

  <line x1="900" y1="280" x2="950" y2="150" />
  <line x1="900" y1="280" x2="1050" y2="80" />
  <line x1="900" y1="280" x2="1100" y2="380" />
  <line x1="900" y1="280" x2="850" y2="400" />
  <line x1="900" y1="280" x2="800" y2="500" />

  <line x1="850" y1="400" x2="800" y2="500" />
  <line x1="850" y1="400" x2="1000" y2="500" />
  <line x1="850" y1="400" x2="1100" y2="380" />

  <line x1="950" y1="150" x2="1000" y2="0" />
  <line x1="950" y1="150" x2="1050" y2="80" />

  <line x1="1050" y1="80" x2="1000" y2="0" />
  <line x1="1050" y1="80" x2="1200" y2="0" />
  <line x1="1050" y1="80" x2="1200" y2="150" />
  <line x1="1050" y1="80" x2="1100" y2="380" />

  <line x1="1100" y1="380" x2="1200" y2="150" />
  <line x1="1100" y1="380" x2="1200" y2="500" />
  <line x1="1100" y1="380" x2="1000" y2="500" />
</svg>
